<?xml version="1.0" encoding="UTF-8"?><svg xmlns="http://www.w3.org/2000/svg" xmlns:xlink="http://www.w3.org/1999/xlink" contentScriptType="text/ecmascript" width="375" zoomAndPan="magnify" contentStyleType="text/css" viewBox="0 0 375 374.999991" height="374.999991" preserveAspectRatio="xMidYMid meet" version="1.0"><defs><clipPath id="clip-0"><path d="M 93 191 L 289 191 L 289 276 L 93 276 Z M 93 191 " clip-rule="nonzero"/></clipPath><clipPath id="clip-1"><path d="M 190.835938 -4.5 L 359.480469 164.148438 L 190.835938 332.792969 L 22.1875 164.148438 Z M 190.835938 -4.5 " clip-rule="nonzero"/></clipPath><clipPath id="clip-2"><path d="M 190.835938 -4.5 L 359.480469 164.148438 L 190.835938 332.792969 L 22.1875 164.148438 Z M 190.835938 -4.5 " clip-rule="nonzero"/></clipPath><clipPath id="clip-3"><path d="M 190 191 L 289 191 L 289 276 L 190 276 Z M 190 191 " clip-rule="nonzero"/></clipPath><clipPath id="clip-4"><path d="M 190.835938 -4.5 L 359.480469 164.148438 L 190.835938 332.792969 L 22.1875 164.148438 Z M 190.835938 -4.5 " clip-rule="nonzero"/></clipPath><clipPath id="clip-5"><path d="M 190.835938 -4.5 L 359.480469 164.148438 L 190.835938 332.792969 L 22.1875 164.148438 Z M 190.835938 -4.5 " clip-rule="nonzero"/></clipPath><clipPath id="clip-6"><path d="M 79 106 L 303 106 L 303 222 L 79 222 Z M 79 106 " clip-rule="nonzero"/></clipPath><clipPath id="clip-7"><path d="M 190.835938 -4.5 L 359.480469 164.148438 L 190.835938 332.792969 L 22.1875 164.148438 Z M 190.835938 -4.5 " clip-rule="nonzero"/></clipPath><clipPath id="clip-8"><path d="M 190.835938 -4.5 L 359.480469 164.148438 L 190.835938 332.792969 L 22.1875 164.148438 Z M 190.835938 -4.5 " clip-rule="nonzero"/></clipPath><clipPath id="clip-9"><path d="M 121 90 L 264 90 L 264 161 L 121 161 Z M 121 90 " clip-rule="nonzero"/></clipPath><clipPath id="clip-10"><path d="M 190.835938 -4.5 L 359.480469 164.148438 L 190.835938 332.792969 L 22.1875 164.148438 Z M 190.835938 -4.5 " clip-rule="nonzero"/></clipPath><clipPath id="clip-11"><path d="M 190.835938 -4.5 L 359.480469 164.148438 L 190.835938 332.792969 L 22.1875 164.148438 Z M 190.835938 -4.5 " clip-rule="nonzero"/></clipPath><clipPath id="clip-12"><path d="M 89 101 L 296 101 L 296 222 L 89 222 Z M 89 101 " clip-rule="nonzero"/></clipPath><clipPath id="clip-13"><path d="M 190.835938 -4.5 L 359.480469 164.148438 L 190.835938 332.792969 L 22.1875 164.148438 Z M 190.835938 -4.5 " clip-rule="nonzero"/></clipPath><clipPath id="clip-14"><path d="M 190.835938 -4.5 L 359.480469 164.148438 L 190.835938 332.792969 L 22.1875 164.148438 Z M 190.835938 -4.5 " clip-rule="nonzero"/></clipPath><clipPath id="clip-15"><path d="M 16 98.125 L 44 98.125 L 44 121 L 16 121 Z M 16 98.125 " clip-rule="nonzero"/></clipPath><clipPath id="clip-16"><path d="M 17 98.125 L 43 98.125 L 43 113 L 17 113 Z M 17 98.125 " clip-rule="nonzero"/></clipPath><clipPath id="clip-17"><path d="M 170 348 L 209.78125 348 L 209.78125 365.125 L 170 365.125 Z M 170 348 " clip-rule="nonzero"/></clipPath><clipPath id="clip-18"><path d="M 170 336.644531 L 209.78125 336.644531 L 209.78125 359.785156 L 170 359.785156 Z M 170 336.644531 " clip-rule="nonzero"/></clipPath><clipPath id="clip-19"><path d="M 337 98.125 L 364 98.125 L 364 121 L 337 121 Z M 337 98.125 " clip-rule="nonzero"/></clipPath><clipPath id="clip-20"><path d="M 337 98.125 L 363 98.125 L 363 113 L 337 113 Z M 337 98.125 " clip-rule="nonzero"/></clipPath><clipPath id="clip-21"><path d="M 170.617188 348 L 210.789062 348 L 210.789062 365.125 L 170.617188 365.125 Z M 170.617188 348 " clip-rule="nonzero"/></clipPath><clipPath id="clip-22"><path d="M 170.617188 336.644531 L 210.789062 336.644531 L 210.789062 359.785156 L 170.617188 359.785156 Z M 170.617188 336.644531 " clip-rule="nonzero"/></clipPath></defs><g clip-path="url(#clip-0)"><g clip-path="url(#clip-1)"><g clip-path="url(#clip-2)"><path fill="rgb(61.959839%, 0%, 0%)" d="M 288.195312 191.617188 L 190.835938 275.070312 L 93.472656 191.617188 Z M 288.195312 191.617188 " fill-opacity="1" fill-rule="nonzero"/></g></g></g><g clip-path="url(#clip-3)"><g clip-path="url(#clip-4)"><g clip-path="url(#clip-5)"><path fill="rgb(73.329163%, 0%, 0%)" d="M 190.835938 191.617188 L 190.835938 275.070312 L 288.195312 191.617188 Z M 190.835938 191.617188 " fill-opacity="1" fill-rule="nonzero"/></g></g></g><g clip-path="url(#clip-6)"><g clip-path="url(#clip-7)"><g clip-path="url(#clip-8)"><path fill="rgb(79.219055%, 0%, 0%)" d="M 302.074219 163.796875 C 302.074219 164.734375 302.027344 165.671875 301.941406 166.613281 C 301.851562 167.550781 301.714844 168.484375 301.539062 169.417969 C 301.359375 170.351562 301.136719 171.285156 300.871094 172.214844 C 300.601562 173.140625 300.292969 174.066406 299.9375 174.988281 C 299.582031 175.90625 299.183594 176.824219 298.738281 177.734375 C 298.296875 178.644531 297.8125 179.550781 297.285156 180.445312 C 296.753906 181.34375 296.183594 182.238281 295.570312 183.121094 C 294.957031 184.003906 294.304688 184.878906 293.605469 185.746094 C 292.910156 186.613281 292.171875 187.472656 291.394531 188.320312 C 290.617188 189.167969 289.796875 190.007812 288.9375 190.835938 C 288.082031 191.664062 287.183594 192.480469 286.246094 193.285156 C 285.3125 194.089844 284.339844 194.882812 283.328125 195.664062 C 282.316406 196.445312 281.265625 197.210938 280.183594 197.964844 C 279.097656 198.71875 277.980469 199.460938 276.824219 200.183594 C 275.667969 200.910156 274.480469 201.621094 273.257812 202.316406 C 272.035156 203.011719 270.78125 203.691406 269.492188 204.355469 C 268.207031 205.019531 266.886719 205.667969 265.539062 206.296875 C 264.191406 206.925781 262.8125 207.539062 261.40625 208.136719 C 259.996094 208.730469 258.5625 209.308594 257.101562 209.867188 C 255.636719 210.425781 254.148438 210.96875 252.636719 211.488281 C 251.121094 212.011719 249.585938 212.511719 248.023438 212.996094 C 246.460938 213.476562 244.878906 213.941406 243.273438 214.382812 C 241.667969 214.824219 240.042969 215.246094 238.394531 215.648438 C 236.75 216.050781 235.085938 216.429688 233.40625 216.789062 C 231.722656 217.148438 230.023438 217.488281 228.308594 217.804688 C 226.597656 218.121094 224.867188 218.414062 223.125 218.6875 C 221.382812 218.960938 219.628906 219.210938 217.863281 219.4375 C 216.097656 219.664062 214.324219 219.871094 212.535156 220.054688 C 210.75 220.238281 208.957031 220.398438 207.15625 220.535156 C 205.355469 220.671875 203.550781 220.789062 201.738281 220.878906 C 199.925781 220.972656 198.113281 221.042969 196.292969 221.085938 C 194.476562 221.132812 192.65625 221.15625 190.835938 221.15625 C 189.015625 221.15625 187.195312 221.132812 185.375 221.089844 C 183.558594 221.042969 181.742188 220.972656 179.933594 220.882812 C 178.121094 220.789062 176.3125 220.675781 174.511719 220.535156 C 172.710938 220.398438 170.917969 220.238281 169.132812 220.054688 C 167.347656 219.871094 165.570312 219.667969 163.804688 219.4375 C 162.039062 219.210938 160.285156 218.960938 158.542969 218.6875 C 156.800781 218.414062 155.074219 218.121094 153.359375 217.804688 C 151.644531 217.488281 149.949219 217.152344 148.265625 216.792969 C 146.582031 216.433594 144.917969 216.050781 143.273438 215.652344 C 141.628906 215.25 140.003906 214.828125 138.398438 214.386719 C 136.792969 213.941406 135.207031 213.480469 133.644531 212.996094 C 132.085938 212.515625 130.546875 212.011719 129.035156 211.492188 C 127.519531 210.96875 126.03125 210.429688 124.570312 209.871094 C 123.105469 209.3125 121.671875 208.734375 120.265625 208.136719 C 118.859375 207.542969 117.480469 206.929688 116.132812 206.300781 C 114.78125 205.667969 113.464844 205.023438 112.175781 204.359375 C 110.890625 203.695312 109.632812 203.015625 108.410156 202.320312 C 107.1875 201.625 106 200.914062 104.84375 200.1875 C 103.691406 199.460938 102.570312 198.722656 101.488281 197.96875 C 100.402344 197.214844 99.355469 196.449219 98.34375 195.667969 C 97.332031 194.886719 96.355469 194.09375 95.421875 193.289062 C 94.484375 192.484375 93.589844 191.667969 92.730469 190.839844 C 91.871094 190.011719 91.054688 189.171875 90.273438 188.324219 C 89.496094 187.476562 88.757812 186.617188 88.0625 185.75 C 87.367188 184.882812 86.710938 184.007812 86.097656 183.125 C 85.484375 182.238281 84.914062 181.347656 84.386719 180.449219 C 83.855469 179.550781 83.371094 178.648438 82.929688 177.738281 C 82.484375 176.828125 82.085938 175.910156 81.730469 174.992188 C 81.378906 174.070312 81.066406 173.144531 80.800781 172.21875 C 80.53125 171.289062 80.308594 170.355469 80.128906 169.421875 C 79.953125 168.488281 79.816406 167.554688 79.730469 166.617188 C 79.640625 165.675781 79.59375 164.738281 79.59375 163.800781 C 79.59375 162.863281 79.640625 161.925781 79.730469 160.988281 C 79.816406 160.050781 79.953125 159.113281 80.128906 158.179688 C 80.308594 157.246094 80.53125 156.3125 80.796875 155.382812 C 81.066406 154.457031 81.375 153.53125 81.730469 152.609375 C 82.085938 151.691406 82.484375 150.773438 82.929688 149.863281 C 83.371094 148.953125 83.855469 148.050781 84.382812 147.152344 C 84.914062 146.253906 85.484375 145.359375 86.097656 144.476562 C 86.710938 143.59375 87.367188 142.71875 88.0625 141.851562 C 88.757812 140.984375 89.496094 140.125 90.273438 139.277344 C 91.054688 138.429688 91.871094 137.589844 92.730469 136.761719 C 93.585938 135.933594 94.484375 135.117188 95.421875 134.3125 C 96.355469 133.507812 97.328125 132.714844 98.339844 131.933594 C 99.351562 131.152344 100.402344 130.386719 101.484375 129.632812 C 102.570312 128.878906 103.6875 128.136719 104.84375 127.414062 C 106 126.6875 107.1875 125.976562 108.410156 125.28125 C 109.632812 124.585938 110.886719 123.90625 112.175781 123.242188 C 113.460938 122.578125 114.78125 121.929688 116.128906 121.300781 C 117.476562 120.671875 118.855469 120.058594 120.265625 119.460938 C 121.671875 118.867188 123.105469 118.289062 124.566406 117.730469 C 126.03125 117.171875 127.519531 116.628906 129.03125 116.109375 C 130.546875 115.585938 132.082031 115.085938 133.644531 114.601562 C 135.207031 114.121094 136.789062 113.65625 138.394531 113.214844 C 140 112.773438 141.625 112.351562 143.273438 111.949219 C 144.917969 111.546875 146.582031 111.167969 148.265625 110.808594 C 149.945312 110.449219 151.644531 110.109375 153.359375 109.792969 C 155.070312 109.476562 156.800781 109.183594 158.542969 108.910156 C 160.285156 108.640625 162.039062 108.386719 163.804688 108.160156 C 165.570312 107.933594 167.347656 107.726562 169.132812 107.542969 C 170.917969 107.359375 172.710938 107.199219 174.511719 107.0625 C 176.3125 106.925781 178.117188 106.808594 179.929688 106.71875 C 181.742188 106.625 183.554688 106.554688 185.375 106.511719 C 187.191406 106.464844 189.011719 106.441406 190.832031 106.441406 C 192.652344 106.441406 194.472656 106.464844 196.292969 106.511719 C 198.109375 106.554688 199.925781 106.625 201.738281 106.71875 C 203.546875 106.808594 205.355469 106.921875 207.15625 107.0625 C 208.957031 107.199219 210.75 107.359375 212.535156 107.542969 C 214.320312 107.726562 216.097656 107.929688 217.863281 108.160156 C 219.628906 108.386719 221.382812 108.636719 223.125 108.910156 C 224.867188 109.183594 226.59375 109.476562 228.308594 109.792969 C 230.023438 110.109375 231.71875 110.445312 233.402344 110.804688 C 235.085938 111.164062 236.75 111.546875 238.394531 111.945312 C 240.039062 112.347656 241.664062 112.769531 243.269531 113.210938 C 244.875 113.65625 246.460938 114.117188 248.023438 114.601562 C 249.582031 115.082031 251.121094 115.585938 252.632812 116.105469 C 254.148438 116.628906 255.636719 117.167969 257.097656 117.726562 C 258.5625 118.285156 259.996094 118.863281 261.402344 119.460938 C 262.808594 120.054688 264.1875 120.667969 265.539062 121.296875 C 266.886719 121.929688 268.203125 122.574219 269.492188 123.238281 C 270.777344 123.902344 272.035156 124.582031 273.257812 125.277344 C 274.480469 125.972656 275.667969 126.683594 276.824219 127.410156 C 277.976562 128.136719 279.097656 128.875 280.183594 129.628906 C 281.265625 130.382812 282.3125 131.148438 283.324219 131.929688 C 284.335938 132.710938 285.3125 133.503906 286.246094 134.308594 C 287.183594 135.113281 288.078125 135.929688 288.9375 136.757812 C 289.796875 137.585938 290.613281 138.425781 291.394531 139.273438 C 292.171875 140.121094 292.910156 140.980469 293.605469 141.847656 C 294.300781 142.714844 294.957031 143.589844 295.570312 144.472656 C 296.183594 145.359375 296.753906 146.25 297.285156 147.148438 C 297.8125 148.046875 298.296875 148.949219 298.738281 149.859375 C 299.183594 150.769531 299.582031 151.6875 299.9375 152.605469 C 300.289062 153.527344 300.601562 154.453125 300.871094 155.378906 C 301.136719 156.308594 301.359375 157.242188 301.539062 158.175781 C 301.714844 159.109375 301.851562 160.046875 301.9375 160.984375 C 302.027344 161.921875 302.074219 162.859375 302.074219 163.796875 Z M 302.074219 163.796875 " fill-opacity="1" fill-rule="nonzero"/></g></g></g><g clip-path="url(#clip-9)"><g clip-path="url(#clip-10)"><g clip-path="url(#clip-11)"><path fill="rgb(92.158508%, 0%, 0%)" d="M 166.492188 90.777344 L 215.175781 90.777344 L 256.902344 104.6875 L 263.855469 139.457031 L 222.128906 160.320312 L 163.015625 156.84375 L 121.289062 135.980469 L 128.246094 101.210938 Z M 166.492188 90.777344 " fill-opacity="1" fill-rule="nonzero"/></g></g></g><g clip-path="url(#clip-12)"><g clip-path="url(#clip-13)"><g clip-path="url(#clip-14)"><path fill="rgb(100%, 18.818665%, 21.179199%)" d="M 263.855469 139.457031 L 256.902344 104.6875 L 295.152344 142.9375 Z M 284.71875 195.09375 L 263.855469 139.457031 L 222.128906 160.320312 Z M 163.015625 156.84375 L 190.835938 221.070312 L 222.128906 160.320312 Z M 121.289062 135.980469 L 93.472656 191.617188 L 163.015625 156.84375 Z M 128.246094 101.210938 L 89.996094 139.457031 L 121.289062 135.980469 Z M 128.246094 101.210938 " fill-opacity="1" fill-rule="nonzero"/></g></g></g><path fill="rgb(88.238525%, 69.018555%, 6.669617%)" d="M 49.855469 253.9375 L 49.855469 259.363281 C 49.855469 262.300781 47.933594 265.183594 44.039062 267.445312 C 36.300781 271.96875 23.703125 271.96875 15.96875 267.445312 C 12.128906 265.183594 10.148438 262.300781 10.148438 259.363281 L 10.148438 253.9375 L 49.855469 253.9375 " fill-opacity="1" fill-rule="nonzero"/><path fill="rgb(91.369629%, 82.749939%, 25.099182%)" d="M 44.035156 262.046875 C 36.28125 266.527344 23.710938 266.527344 15.957031 262.046875 C 8.203125 257.566406 8.203125 250.304688 15.957031 245.824219 C 23.710938 241.34375 36.28125 241.34375 44.035156 245.824219 C 51.785156 250.304688 51.789062 257.566406 44.035156 262.046875 " fill-opacity="1" fill-rule="nonzero"/><path fill="rgb(88.238525%, 69.018555%, 6.669617%)" d="M 36.378906 118.210938 L 36.378906 252.964844 C 36.378906 253.910156 35.757812 254.835938 34.507812 255.5625 C 32.023438 257.015625 27.976562 257.015625 25.492188 255.5625 C 24.257812 254.835938 23.621094 253.910156 23.621094 252.964844 L 23.621094 118.210938 L 36.378906 118.210938 " fill-opacity="1" fill-rule="nonzero"/><path fill="rgb(91.369629%, 82.749939%, 25.099182%)" d="M 34.507812 120.816406 C 32.015625 122.253906 27.976562 122.253906 25.488281 120.816406 C 22.996094 119.378906 22.996094 117.042969 25.488281 115.605469 C 27.976562 114.164062 32.015625 114.164062 34.507812 115.605469 C 37 117.042969 37 119.378906 34.507812 120.816406 " fill-opacity="1" fill-rule="nonzero"/><path fill="rgb(70.588684%, 69.799805%, 87.838745%)" d="M 38.101562 134.320312 C 37.015625 134.320312 36.023438 133.601562 35.722656 132.503906 C 34.519531 128.105469 33.910156 123.917969 33.910156 120.058594 C 33.910156 118.695312 35.011719 117.589844 36.378906 117.589844 C 37.742188 117.589844 38.84375 118.695312 38.84375 120.058594 C 38.84375 123.480469 39.398438 127.226562 40.484375 131.203125 C 40.84375 132.519531 40.070312 133.875 38.753906 134.234375 C 38.535156 134.292969 38.316406 134.320312 38.101562 134.320312 " fill-opacity="1" fill-rule="nonzero"/><path fill="rgb(45.098877%, 45.098877%, 45.098877%)" d="M 111.714844 216.566406 C 111.296875 216.566406 110.871094 216.464844 110.484375 216.238281 C 74.214844 195.277344 43.472656 160.847656 35.722656 132.503906 C 35.363281 131.1875 36.136719 129.832031 37.453125 129.46875 C 38.753906 129.125 40.121094 129.878906 40.484375 131.203125 C 47.800781 157.957031 78.28125 191.917969 112.953125 211.960938 C 114.132812 212.644531 114.539062 214.152344 113.855469 215.335938 C 113.398438 216.125 112.570312 216.566406 111.714844 216.566406 " fill-opacity="1" fill-rule="nonzero"/><path fill="rgb(70.588684%, 69.799805%, 87.838745%)" d="M 185.335938 219.398438 C 185.03125 219.398438 184.722656 219.34375 184.417969 219.222656 C 183.152344 218.714844 182.539062 217.277344 183.046875 216.007812 C 184.074219 213.449219 184.59375 210.460938 184.59375 207.136719 C 184.59375 205.769531 185.699219 204.664062 187.0625 204.664062 C 188.425781 204.664062 189.53125 205.769531 189.53125 207.136719 C 189.53125 211.09375 188.890625 214.699219 187.628906 217.847656 C 187.242188 218.816406 186.316406 219.398438 185.335938 219.398438 " fill-opacity="1" fill-rule="nonzero"/><path fill="rgb(45.098877%, 45.098877%, 45.098877%)" d="M 160.792969 232.769531 C 146.824219 232.769531 129.234375 227.070312 110.484375 216.238281 C 109.304688 215.554688 108.902344 214.046875 109.582031 212.863281 C 110.261719 211.683594 111.773438 211.265625 112.953125 211.960938 C 136.410156 225.511719 158.464844 230.832031 171.945312 226.148438 C 177.375 224.265625 181.109375 220.859375 183.046875 216.015625 C 183.554688 214.746094 184.996094 214.128906 186.253906 214.640625 C 187.519531 215.148438 188.136719 216.585938 187.628906 217.847656 C 185.171875 224 180.304688 228.480469 173.558594 230.816406 C 169.777344 232.132812 165.488281 232.769531 160.792969 232.769531 " fill-opacity="1" fill-rule="nonzero"/><path fill="rgb(87.059021%, 53.729248%, 9.01947%)" d="M 43.636719 111.773438 C 43.636719 119.304688 37.523438 125.425781 30 125.425781 C 22.476562 125.425781 16.359375 119.304688 16.359375 111.773438 C 16.359375 110.890625 16.441406 110.003906 16.644531 109.160156 C 17.929688 115.398438 23.398438 120.070312 30 120.070312 C 36.59375 120.070312 42.066406 115.398438 43.355469 109.160156 C 43.554688 110.003906 43.636719 110.890625 43.636719 111.773438 " fill-opacity="1" fill-rule="nonzero"/><g clip-path="url(#clip-15)"><path fill="rgb(88.238525%, 69.018555%, 6.669617%)" d="M 43.355469 109.039062 L 43.355469 109.160156 C 42.066406 115.398438 36.59375 120.070312 30 120.070312 C 23.398438 120.070312 17.929688 115.398438 16.644531 109.160156 L 16.644531 109.039062 C 16.804688 108.191406 17.085938 107.347656 17.40625 106.582031 C 19.460938 101.589844 24.289062 98.125 30 98.125 C 35.710938 98.125 40.539062 101.589844 42.589844 106.582031 C 42.914062 107.347656 43.195312 108.191406 43.355469 109.039062 " fill-opacity="1" fill-rule="nonzero"/></g><g clip-path="url(#clip-16)"><path fill="rgb(91.369629%, 82.749939%, 25.099182%)" d="M 42.589844 106.582031 C 42.105469 107.910156 40.941406 109.199219 39.132812 110.246094 C 38.527344 110.566406 37.882812 110.890625 37.199219 111.128906 L 37.117188 111.171875 C 32.089844 113.101562 25.292969 112.78125 20.867188 110.246094 C 19.054688 109.199219 17.890625 107.910156 17.40625 106.582031 C 19.460938 101.589844 24.289062 98.125 30 98.125 C 35.710938 98.125 40.539062 101.589844 42.589844 106.582031 " fill-opacity="1" fill-rule="nonzero"/></g><g clip-path="url(#clip-17)"><path fill="rgb(88.238525%, 69.018555%, 6.669617%)" d="M 209.78125 348.226562 L 209.78125 353.652344 C 209.78125 356.589844 207.859375 359.472656 203.960938 361.734375 C 196.226562 366.257812 183.632812 366.257812 175.890625 361.734375 C 172.050781 359.472656 170.074219 356.589844 170.074219 353.652344 L 170.074219 348.226562 L 209.78125 348.226562 " fill-opacity="1" fill-rule="nonzero"/></g><g clip-path="url(#clip-18)"><path fill="rgb(91.369629%, 82.749939%, 25.099182%)" d="M 203.960938 356.335938 C 196.207031 360.816406 183.636719 360.816406 175.882812 356.335938 C 168.128906 351.855469 168.128906 344.59375 175.882812 340.113281 C 183.636719 335.632812 196.207031 335.632812 203.960938 340.113281 C 211.714844 344.59375 211.714844 351.855469 203.960938 356.335938 " fill-opacity="1" fill-rule="nonzero"/></g><path fill="rgb(88.238525%, 69.018555%, 6.669617%)" d="M 196.300781 212.5 L 196.300781 347.253906 C 196.300781 348.199219 195.6875 349.125 194.433594 349.851562 C 191.949219 351.304688 187.902344 351.304688 185.417969 349.851562 C 184.183594 349.125 183.546875 348.199219 183.546875 347.253906 L 183.546875 212.5 L 196.300781 212.5 " fill-opacity="1" fill-rule="nonzero"/><path fill="rgb(91.369629%, 82.749939%, 25.099182%)" d="M 194.429688 215.105469 C 191.941406 216.542969 187.90625 216.542969 185.414062 215.105469 C 182.921875 213.667969 182.921875 211.332031 185.414062 209.894531 C 187.90625 208.453125 191.941406 208.453125 194.429688 209.894531 C 196.921875 211.332031 196.921875 213.667969 194.429688 215.105469 " fill-opacity="1" fill-rule="nonzero"/><path fill="rgb(87.059021%, 53.729248%, 9.01947%)" d="M 203.5625 206.0625 C 203.5625 213.59375 197.445312 219.714844 189.925781 219.714844 C 182.402344 219.714844 176.289062 213.59375 176.289062 206.0625 C 176.289062 205.179688 176.367188 204.292969 176.566406 203.449219 C 177.855469 209.6875 183.328125 214.359375 189.925781 214.359375 C 196.523438 214.359375 201.992188 209.6875 203.28125 203.449219 C 203.480469 204.292969 203.5625 205.179688 203.5625 206.0625 " fill-opacity="1" fill-rule="nonzero"/><path fill="rgb(88.238525%, 69.018555%, 6.669617%)" d="M 203.28125 203.328125 L 203.28125 203.449219 C 201.992188 209.6875 196.523438 214.359375 189.925781 214.359375 C 183.328125 214.359375 177.855469 209.6875 176.566406 203.449219 L 176.566406 203.328125 C 176.730469 202.480469 177.011719 201.636719 177.332031 200.871094 C 179.382812 195.878906 184.210938 192.414062 189.925781 192.414062 C 195.636719 192.414062 200.464844 195.878906 202.515625 200.871094 C 202.835938 201.636719 203.117188 202.480469 203.28125 203.328125 " fill-opacity="1" fill-rule="nonzero"/><path fill="rgb(91.369629%, 82.749939%, 25.099182%)" d="M 202.515625 200.871094 C 202.035156 202.199219 200.867188 203.488281 199.054688 204.535156 C 198.453125 204.855469 197.808594 205.179688 197.125 205.417969 L 197.042969 205.460938 C 192.015625 207.390625 185.21875 207.074219 180.792969 204.535156 C 178.984375 203.488281 177.816406 202.199219 177.332031 200.871094 C 179.382812 195.878906 184.210938 192.414062 189.925781 192.414062 C 195.636719 192.414062 200.464844 195.878906 202.515625 200.871094 " fill-opacity="1" fill-rule="nonzero"/><path fill="rgb(88.238525%, 69.018555%, 6.669617%)" d="M 330.542969 253.9375 L 330.542969 259.363281 C 330.542969 262.300781 332.464844 265.183594 336.363281 267.445312 C 344.101562 271.96875 356.695312 271.96875 364.433594 267.445312 C 368.273438 265.183594 370.25 262.300781 370.25 259.363281 L 370.25 253.9375 L 330.542969 253.9375 " fill-opacity="1" fill-rule="nonzero"/><path fill="rgb(91.369629%, 82.749939%, 25.099182%)" d="M 336.363281 262.046875 C 344.117188 266.527344 356.6875 266.527344 364.441406 262.046875 C 372.195312 257.566406 372.195312 250.304688 364.441406 245.824219 C 356.6875 241.34375 344.117188 241.34375 336.367188 245.824219 C 328.613281 250.304688 328.609375 257.566406 336.363281 262.046875 " fill-opacity="1" fill-rule="nonzero"/><path fill="rgb(88.238525%, 69.018555%, 6.669617%)" d="M 344.023438 118.210938 L 344.023438 252.964844 C 344.023438 253.910156 344.640625 254.835938 345.890625 255.5625 C 348.378906 257.015625 352.421875 257.015625 354.910156 255.5625 C 356.140625 254.835938 356.777344 253.910156 356.777344 252.964844 L 356.777344 118.210938 L 344.023438 118.210938 " fill-opacity="1" fill-rule="nonzero"/><path fill="rgb(91.369629%, 82.749939%, 25.099182%)" d="M 345.894531 120.816406 C 348.382812 122.253906 352.421875 122.253906 354.910156 120.816406 C 357.402344 119.378906 357.402344 117.042969 354.910156 115.605469 C 352.421875 114.164062 348.382812 114.164062 345.894531 115.605469 C 343.402344 117.042969 343.402344 119.378906 345.894531 120.816406 " fill-opacity="1" fill-rule="nonzero"/><path fill="rgb(70.588684%, 69.799805%, 87.838745%)" d="M 342.300781 134.320312 C 343.382812 134.320312 344.375 133.601562 344.675781 132.503906 C 345.878906 128.105469 346.492188 123.917969 346.492188 120.058594 C 346.492188 118.695312 345.386719 117.589844 344.023438 117.589844 C 342.660156 117.589844 341.554688 118.695312 341.554688 120.058594 C 341.554688 123.480469 341.003906 127.226562 339.917969 131.203125 C 339.558594 132.519531 340.332031 133.875 341.644531 134.234375 C 341.863281 134.292969 342.082031 134.320312 342.300781 134.320312 " fill-opacity="1" fill-rule="nonzero"/><path fill="rgb(45.098877%, 45.098877%, 45.098877%)" d="M 268.683594 216.566406 C 269.101562 216.566406 269.527344 216.464844 269.914062 216.238281 C 306.183594 195.277344 336.925781 160.847656 344.675781 132.503906 C 345.035156 131.1875 344.261719 129.832031 342.949219 129.46875 C 341.644531 129.125 340.277344 129.878906 339.917969 131.203125 C 332.597656 157.957031 302.121094 191.917969 267.445312 211.960938 C 266.269531 212.644531 265.859375 214.152344 266.542969 215.335938 C 267.003906 216.125 267.832031 216.566406 268.683594 216.566406 " fill-opacity="1" fill-rule="nonzero"/><path fill="rgb(70.588684%, 69.799805%, 87.838745%)" d="M 195.0625 219.398438 C 195.367188 219.398438 195.679688 219.34375 195.980469 219.222656 C 197.246094 218.714844 197.859375 217.277344 197.351562 216.007812 C 196.324219 213.449219 195.804688 210.460938 195.804688 207.136719 C 195.804688 205.769531 194.699219 204.664062 193.335938 204.664062 C 191.972656 204.664062 190.867188 205.769531 190.867188 207.136719 C 190.867188 211.09375 191.511719 214.699219 192.773438 217.847656 C 193.160156 218.816406 194.082031 219.398438 195.0625 219.398438 " fill-opacity="1" fill-rule="nonzero"/><path fill="rgb(45.098877%, 45.098877%, 45.098877%)" d="M 219.609375 232.769531 C 233.578125 232.769531 251.167969 227.070312 269.914062 216.238281 C 271.097656 215.554688 271.5 214.046875 270.816406 212.863281 C 270.140625 211.683594 268.628906 211.265625 267.445312 211.960938 C 243.992188 225.511719 221.933594 230.832031 208.457031 226.148438 C 203.027344 224.265625 199.289062 220.859375 197.355469 216.015625 C 196.84375 214.746094 195.402344 214.128906 194.148438 214.640625 C 192.878906 215.148438 192.265625 216.585938 192.769531 217.847656 C 195.230469 224 200.09375 228.480469 206.839844 230.816406 C 210.625 232.132812 214.910156 232.769531 219.609375 232.769531 " fill-opacity="1" fill-rule="nonzero"/><path fill="rgb(87.059021%, 53.729248%, 9.01947%)" d="M 336.761719 111.773438 C 336.761719 119.304688 342.878906 125.425781 350.398438 125.425781 C 357.921875 125.425781 364.039062 119.304688 364.039062 111.773438 C 364.039062 110.890625 363.957031 110.003906 363.757812 109.160156 C 362.46875 115.398438 357 120.070312 350.398438 120.070312 C 343.804688 120.070312 338.332031 115.398438 337.046875 109.160156 C 336.84375 110.003906 336.761719 110.890625 336.761719 111.773438 " fill-opacity="1" fill-rule="nonzero"/><g clip-path="url(#clip-19)"><path fill="rgb(88.238525%, 69.018555%, 6.669617%)" d="M 337.046875 109.039062 L 337.046875 109.160156 C 338.332031 115.398438 343.804688 120.070312 350.398438 120.070312 C 357 120.070312 362.46875 115.398438 363.757812 109.160156 L 363.757812 109.039062 C 363.597656 108.191406 363.3125 107.347656 362.992188 106.582031 C 360.941406 101.589844 356.113281 98.125 350.398438 98.125 C 344.6875 98.125 339.859375 101.589844 337.808594 106.582031 C 337.488281 107.347656 337.203125 108.191406 337.046875 109.039062 " fill-opacity="1" fill-rule="nonzero"/></g><g clip-path="url(#clip-20)"><path fill="rgb(91.369629%, 82.749939%, 25.099182%)" d="M 337.808594 106.582031 C 338.292969 107.910156 339.457031 109.199219 341.269531 110.246094 C 341.875 110.566406 342.515625 110.890625 343.199219 111.128906 L 343.28125 111.171875 C 348.308594 113.101562 355.109375 112.78125 359.53125 110.246094 C 361.34375 109.199219 362.507812 107.910156 362.992188 106.582031 C 360.941406 101.589844 356.113281 98.125 350.398438 98.125 C 344.6875 98.125 339.859375 101.589844 337.808594 106.582031 " fill-opacity="1" fill-rule="nonzero"/></g><g clip-path="url(#clip-21)"><path fill="rgb(88.238525%, 69.018555%, 6.669617%)" d="M 170.621094 348.226562 L 170.621094 353.652344 C 170.621094 356.589844 172.539062 359.472656 176.4375 361.734375 C 184.175781 366.257812 196.769531 366.257812 204.507812 361.734375 C 208.347656 359.472656 210.324219 356.589844 210.324219 353.652344 L 210.324219 348.226562 L 170.621094 348.226562 " fill-opacity="1" fill-rule="nonzero"/></g><g clip-path="url(#clip-22)"><path fill="rgb(91.369629%, 82.749939%, 25.099182%)" d="M 176.4375 356.335938 C 184.191406 360.816406 196.761719 360.816406 204.515625 356.335938 C 212.269531 351.855469 212.269531 344.59375 204.515625 340.113281 C 196.765625 335.632812 184.195312 335.632812 176.4375 340.113281 C 168.6875 344.59375 168.6875 351.855469 176.4375 356.335938 " fill-opacity="1" fill-rule="nonzero"/></g><path fill="rgb(88.238525%, 69.018555%, 6.669617%)" d="M 184.097656 212.5 L 184.097656 347.253906 C 184.097656 348.199219 184.714844 349.125 185.964844 349.851562 C 188.449219 351.304688 192.496094 351.304688 194.984375 349.851562 C 196.21875 349.125 196.851562 348.199219 196.851562 347.253906 L 196.851562 212.5 L 184.097656 212.5 " fill-opacity="1" fill-rule="nonzero"/><path fill="rgb(91.369629%, 82.749939%, 25.099182%)" d="M 185.96875 215.105469 C 188.457031 216.542969 192.496094 216.542969 194.984375 215.105469 C 197.476562 213.667969 197.476562 211.332031 194.984375 209.894531 C 192.496094 208.453125 188.457031 208.453125 185.96875 209.894531 C 183.476562 211.332031 183.476562 213.667969 185.96875 215.105469 " fill-opacity="1" fill-rule="nonzero"/><path fill="rgb(87.059021%, 53.729248%, 9.01947%)" d="M 176.835938 206.0625 C 176.835938 213.59375 182.953125 219.714844 190.476562 219.714844 C 198 219.714844 204.113281 213.59375 204.113281 206.0625 C 204.113281 205.179688 204.035156 204.292969 203.832031 203.449219 C 202.542969 209.6875 197.074219 214.359375 190.476562 214.359375 C 183.878906 214.359375 178.40625 209.6875 177.121094 203.449219 C 176.917969 204.292969 176.835938 205.179688 176.835938 206.0625 " fill-opacity="1" fill-rule="nonzero"/><path fill="rgb(88.238525%, 69.018555%, 6.669617%)" d="M 177.121094 203.328125 L 177.121094 203.449219 C 178.40625 209.6875 183.878906 214.359375 190.476562 214.359375 C 197.074219 214.359375 202.542969 209.6875 203.832031 203.449219 L 203.832031 203.328125 C 203.667969 202.480469 203.390625 201.636719 203.066406 200.871094 C 201.015625 195.878906 196.1875 192.414062 190.476562 192.414062 C 184.761719 192.414062 179.9375 195.878906 177.882812 200.871094 C 177.5625 201.636719 177.28125 202.480469 177.121094 203.328125 " fill-opacity="1" fill-rule="nonzero"/><path fill="rgb(91.369629%, 82.749939%, 25.099182%)" d="M 177.882812 200.871094 C 178.367188 202.199219 179.535156 203.488281 181.34375 204.535156 C 181.945312 204.855469 182.589844 205.179688 183.273438 205.417969 L 183.355469 205.460938 C 188.382812 207.390625 195.183594 207.074219 199.609375 204.535156 C 201.417969 203.488281 202.582031 202.199219 203.066406 200.871094 C 201.015625 195.878906 196.1875 192.414062 190.476562 192.414062 C 184.761719 192.414062 179.9375 195.878906 177.882812 200.871094 " fill-opacity="1" fill-rule="nonzero"/></svg>